<svg xmlns="http://www.w3.org/2000/svg" width="960" height="1148" viewBox="0 0 960 1148" role="img" aria-labelledby="t d"><title id="t">How an assistant connects</title><desc id="d">Sequence: the assistant gets 401 from /mcp, discovers the auth server through RFC 9728 and RFC 8414 metadata, registers itself, sends you through sign-in and consent with PKCE, exchanges the code for a JWT bound to /mcp, then calls tools; /mcp checks the token and the live consent row on every call.</desc><style>
svg{--bg:#ffffff;--panel:#f6f8fa;--line:#d0d7de;--ink:#1f2328;--mute:#59636e;--faint:#818b98;
--blue:#0969da;--purple:#8250df;--green:#1a7f37;--orange:#bc4c00;--red:#cf222e;--gray:#59636e;
--blue-t:#ddf4ff;--purple-t:#fbefff;--green-t:#dafbe1;--orange-t:#fff1e5;--red-t:#ffebe9;--gray-t:#f6f8fa}
text{font-family:-apple-system,BlinkMacSystemFont,"Segoe UI","Noto Sans",Helvetica,Arial,sans-serif;fill:var(--ink)}
.mono{font-family:ui-monospace,SFMono-Regular,"SF Mono",Menlo,Consolas,"Liberation Mono",monospace}
.bg{fill:var(--bg);stroke:var(--line)}
.panel{fill:var(--panel);stroke:var(--line)}
.frame{fill:none;stroke:var(--line);stroke-width:1.5;stroke-dasharray:6 5}
.ink{fill:var(--ink)}.mute{fill:var(--mute)}.faint{fill:var(--faint)}
.t{font-size:15px;font-weight:600}.s{font-size:13px;fill:var(--mute)}.xs{font-size:11.5px;fill:var(--mute)}
.h{font-size:12px;font-weight:600;letter-spacing:.08em;fill:var(--faint)}
.line{fill:none;stroke:var(--line);stroke-width:1.5}
.dash{stroke-dasharray:5 4}
.f-blue{fill:var(--blue-t);stroke:var(--blue)}.c-blue{fill:var(--blue)}.k-blue{fill:none;stroke:var(--blue)}.m-blue{fill:var(--blue)}
.f-purple{fill:var(--purple-t);stroke:var(--purple)}.c-purple{fill:var(--purple)}.k-purple{fill:none;stroke:var(--purple)}.m-purple{fill:var(--purple)}
.f-green{fill:var(--green-t);stroke:var(--green)}.c-green{fill:var(--green)}.k-green{fill:none;stroke:var(--green)}.m-green{fill:var(--green)}
.f-orange{fill:var(--orange-t);stroke:var(--orange)}.c-orange{fill:var(--orange)}.k-orange{fill:none;stroke:var(--orange)}.m-orange{fill:var(--orange)}
.f-red{fill:var(--red-t);stroke:var(--red)}.c-red{fill:var(--red)}.k-red{fill:none;stroke:var(--red)}.m-red{fill:var(--red)}
.f-gray{fill:var(--gray-t);stroke:var(--gray)}.c-gray{fill:var(--gray)}.k-gray{fill:none;stroke:var(--gray)}.m-gray{fill:var(--gray)}
@media (prefers-color-scheme:dark){
svg{--bg:#0d1117;--panel:#161b22;--line:#30363d;--ink:#e6edf3;--mute:#9198a1;--faint:#6e7681;
--blue:#4493f8;--purple:#ab7df8;--green:#3fb950;--orange:#db6d28;--red:#f85149;--gray:#9198a1;
--blue-t:rgba(56,139,253,.13);--purple-t:rgba(163,113,247,.14);--green-t:rgba(46,160,67,.14);--orange-t:rgba(219,109,40,.14);--red-t:rgba(248,81,73,.13);--gray-t:#161b22}
text{font-family:-apple-system,BlinkMacSystemFont,"Segoe UI","Noto Sans",Helvetica,Arial,sans-serif;fill:var(--ink)}
.mono{font-family:ui-monospace,SFMono-Regular,"SF Mono",Menlo,Consolas,"Liberation Mono",monospace}
.bg{fill:var(--bg);stroke:var(--line)}
.panel{fill:var(--panel);stroke:var(--line)}
.frame{fill:none;stroke:var(--line);stroke-width:1.5;stroke-dasharray:6 5}
.ink{fill:var(--ink)}.mute{fill:var(--mute)}.faint{fill:var(--faint)}
.t{font-size:15px;font-weight:600}.s{font-size:13px;fill:var(--mute)}.xs{font-size:11.5px;fill:var(--mute)}
.h{font-size:12px;font-weight:600;letter-spacing:.08em;fill:var(--faint)}
.line{fill:none;stroke:var(--line);stroke-width:1.5}
.dash{stroke-dasharray:5 4}
.f-blue{fill:var(--blue-t);stroke:var(--blue)}.c-blue{fill:var(--blue)}.k-blue{fill:none;stroke:var(--blue)}.m-blue{fill:var(--blue)}
.f-purple{fill:var(--purple-t);stroke:var(--purple)}.c-purple{fill:var(--purple)}.k-purple{fill:none;stroke:var(--purple)}.m-purple{fill:var(--purple)}
.f-green{fill:var(--green-t);stroke:var(--green)}.c-green{fill:var(--green)}.k-green{fill:none;stroke:var(--green)}.m-green{fill:var(--green)}
.f-orange{fill:var(--orange-t);stroke:var(--orange)}.c-orange{fill:var(--orange)}.k-orange{fill:none;stroke:var(--orange)}.m-orange{fill:var(--orange)}
.f-red{fill:var(--red-t);stroke:var(--red)}.c-red{fill:var(--red)}.k-red{fill:none;stroke:var(--red)}.m-red{fill:var(--red)}
.f-gray{fill:var(--gray-t);stroke:var(--gray)}.c-gray{fill:var(--gray)}.k-gray{fill:none;stroke:var(--gray)}.m-gray{fill:var(--gray)}
}</style><defs><marker id="a-blue" viewBox="0 0 10 10" refX="8.5" refY="5" markerWidth="8" markerHeight="8" orient="auto-start-reverse"><path d="M1 1.5 L8.5 5 L1 8.5 Z" class="m-blue"/></marker><marker id="s-blue" viewBox="0 0 10 10" refX="5" refY="5" markerWidth="7" markerHeight="7"><circle cx="5" cy="5" r="3" class="m-blue"/></marker><marker id="a-purple" viewBox="0 0 10 10" refX="8.5" refY="5" markerWidth="8" markerHeight="8" orient="auto-start-reverse"><path d="M1 1.5 L8.5 5 L1 8.5 Z" class="m-purple"/></marker><marker id="s-purple" viewBox="0 0 10 10" refX="5" refY="5" markerWidth="7" markerHeight="7"><circle cx="5" cy="5" r="3" class="m-purple"/></marker><marker id="a-green" viewBox="0 0 10 10" refX="8.5" refY="5" markerWidth="8" markerHeight="8" orient="auto-start-reverse"><path d="M1 1.5 L8.5 5 L1 8.5 Z" class="m-green"/></marker><marker id="s-green" viewBox="0 0 10 10" refX="5" refY="5" markerWidth="7" markerHeight="7"><circle cx="5" cy="5" r="3" class="m-green"/></marker><marker id="a-orange" viewBox="0 0 10 10" refX="8.5" refY="5" markerWidth="8" markerHeight="8" orient="auto-start-reverse"><path d="M1 1.5 L8.5 5 L1 8.5 Z" class="m-orange"/></marker><marker id="s-orange" viewBox="0 0 10 10" refX="5" refY="5" markerWidth="7" markerHeight="7"><circle cx="5" cy="5" r="3" class="m-orange"/></marker><marker id="a-red" viewBox="0 0 10 10" refX="8.5" refY="5" markerWidth="8" markerHeight="8" orient="auto-start-reverse"><path d="M1 1.5 L8.5 5 L1 8.5 Z" class="m-red"/></marker><marker id="s-red" viewBox="0 0 10 10" refX="5" refY="5" markerWidth="7" markerHeight="7"><circle cx="5" cy="5" r="3" class="m-red"/></marker><marker id="a-gray" viewBox="0 0 10 10" refX="8.5" refY="5" markerWidth="8" markerHeight="8" orient="auto-start-reverse"><path d="M1 1.5 L8.5 5 L1 8.5 Z" class="m-gray"/></marker><marker id="s-gray" viewBox="0 0 10 10" refX="5" refY="5" markerWidth="7" markerHeight="7"><circle cx="5" cy="5" r="3" class="m-gray"/></marker></defs><rect x="0.75" y="0.75" width="958.5" height="1146.5" rx="18" class="bg" stroke-width="1.5"/><path d="M122 94 V1124" class="line dash" stroke-width="1.25"/><path d="M374 94 V1124" class="line dash" stroke-width="1.25"/><path d="M608 94 V1124" class="line dash" stroke-width="1.25"/><path d="M836 94 V1124" class="line dash" stroke-width="1.25"/><rect x="24" y="111" width="912" height="28" rx="8" class="panel" stroke-width="1"/><text x="40" y="129.5" class="h">1 · DISCOVER</text><rect x="24" y="393" width="912" height="28" rx="8" class="panel" stroke-width="1"/><text x="40" y="411.5" class="h">2 · REGISTER (DYNAMIC CLIENT REGISTRATION)</text><rect x="24" y="511" width="912" height="28" rx="8" class="panel" stroke-width="1"/><text x="40" y="529.5" class="h">3 · AUTHORIZE (YOU, IN THE BROWSER)</text><rect x="24" y="776" width="912" height="28" rx="8" class="panel" stroke-width="1"/><text x="40" y="794.5" class="h">4 · TOKEN (PKCE)</text><rect x="24" y="894" width="912" height="28" rx="8" class="panel" stroke-width="1"/><text x="40" y="912.5" class="h">5 · EVERY TOOL CALL</text><rect x="34" y="24" width="176" height="70" rx="12" class="f-purple" stroke-width="1.5"/><g transform="translate(48 35)" class="k-purple" stroke-width="1.8" stroke-linecap="round" stroke-linejoin="round" fill="none"><path d="M12 2.5c.8 4.6 2.9 6.7 7.5 7.5-4.6.8-6.7 2.9-7.5 7.5-.8-4.6-2.9-6.7-7.5-7.5 4.6-.8 6.7-2.9 7.5-7.5z"/><path d="M19 16.5c.3 1.7 1 2.4 2.5 2.7-1.5.3-2.2 1-2.5 2.7-.3-1.7-1-2.4-2.5-2.7 1.5-.3 2.2-1 2.5-2.7z"/></g><text x="80" y="53" class="t">Assistant</text><text x="80" y="73" class="xs">ChatGPT · Claude</text><rect x="286" y="24" width="176" height="70" rx="12" class="f-purple" stroke-width="1.5"/><g transform="translate(300 35)" class="k-purple" stroke-width="1.8" stroke-linecap="round" stroke-linejoin="round" fill="none"><path d="M14.5 6.5a4 4 0 0 0 5 5l-8 8a2.1 2.1 0 0 1-3-3l8-8a4 4 0 0 0-2-2z"/></g><text x="332" y="53" class="t">MCP server</text><text x="332" y="73" class="mono xs" style="font-size:11px">/mcp</text><rect x="520" y="24" width="176" height="70" rx="12" class="f-blue" stroke-width="1.5"/><g transform="translate(534 35)" class="k-blue" stroke-width="1.8" stroke-linecap="round" stroke-linejoin="round" fill="none"><circle cx="8" cy="15" r="4.5"/><path d="M11.2 11.8 20 3M16.5 6.5l2.5 2.5M14 9l2 2"/></g><text x="566" y="53" class="t">Better Auth</text><text x="566" y="73" class="mono xs" style="font-size:11px">/api/auth/*</text><rect x="748" y="24" width="176" height="70" rx="12" class="f-gray" stroke-width="1.5"/><g transform="translate(762 35)" class="k-gray" stroke-width="1.8" stroke-linecap="round" stroke-linejoin="round" fill="none"><circle cx="12" cy="8" r="4"/><path d="M4 21c.8-4 4-6 8-6s7.2 2 8 6"/></g><text x="794" y="53" class="t">You</text><text x="794" y="73" class="xs">in the browser</text><path d="M127 162 H367" class="k-purple" stroke-width="1.75" stroke-linecap="round" stroke-linejoin="round" marker-end="url(#a-purple)"/><text x="248" y="154" text-anchor="middle" class="mono" style="font-size:12px">POST /mcp  (no token)</text><path d="M369 200 H129" class="k-red dash" stroke-width="1.75" stroke-linecap="round" stroke-linejoin="round" marker-end="url(#a-red)"/><text x="248" y="192" text-anchor="middle" class="mono" style="font-size:12px">401 Unauthorized</text><text x="248" y="217" text-anchor="middle" class="mono xs" style="font-size:11px">WWW-Authenticate: resource_metadata</text><path d="M127 250 H601" class="k-purple" stroke-width="1.75" stroke-linecap="round" stroke-linejoin="round" marker-end="url(#a-purple)"/><text x="365" y="242" text-anchor="middle" class="mono" style="font-size:12px">GET /.well-known/oauth-protected-resource/mcp</text><path d="M603 288 H129" class="k-blue dash" stroke-width="1.75" stroke-linecap="round" stroke-linejoin="round" marker-end="url(#a-blue)"/><text x="365" y="280" text-anchor="middle" class="mono" style="font-size:12px">authorization server: &lt;url&gt;/api/auth</text><path d="M127 326 H601" class="k-purple" stroke-width="1.75" stroke-linecap="round" stroke-linejoin="round" marker-end="url(#a-purple)"/><text x="365" y="318" text-anchor="middle" class="mono" style="font-size:12px">GET /.well-known/oauth-authorization-server/api/auth</text><path d="M603 364 H129" class="k-blue dash" stroke-width="1.75" stroke-linecap="round" stroke-linejoin="round" marker-end="url(#a-blue)"/><text x="365" y="356" text-anchor="middle" class="" style="font-size:12.5px">register · authorize · token endpoints</text><path d="M127 444 H601" class="k-purple" stroke-width="1.75" stroke-linecap="round" stroke-linejoin="round" marker-end="url(#a-purple)"/><text x="365" y="436" text-anchor="middle" class="mono" style="font-size:12px">POST /oauth2/register  { redirect_uris }</text><path d="M603 482 H129" class="k-blue dash" stroke-width="1.75" stroke-linecap="round" stroke-linejoin="round" marker-end="url(#a-blue)"/><text x="365" y="474" text-anchor="middle" class="mono" style="font-size:12px">client_id</text><path d="M127 562 H829" class="k-purple" stroke-width="1.75" stroke-linecap="round" stroke-linejoin="round" marker-end="url(#a-purple)"/><text x="479" y="554" text-anchor="middle" class="mono" style="font-size:12px">open /oauth2/authorize  code_challenge · resource=/mcp</text><path d="M831 600 H615" class="k-gray" stroke-width="1.75" stroke-linecap="round" stroke-linejoin="round" marker-end="url(#a-gray)"/><text x="722" y="592" text-anchor="middle" class="" style="font-size:12.5px">sign in</text><text x="722" y="617" text-anchor="middle" class="mono xs" style="font-size:11px">/login</text><path d="M831 650 H615" class="k-gray" stroke-width="1.75" stroke-linecap="round" stroke-linejoin="round" marker-end="url(#a-gray)"/><text x="722" y="642" text-anchor="middle" class="" style="font-size:12.5px">Allow</text><text x="722" y="667" text-anchor="middle" class="mono xs" style="font-size:11px">/oauth/consent</text><rect x="510" y="686" width="196" height="33" rx="9" class="f-orange" stroke-width="1.25"/><text x="524" y="705" class="c-orange" style="font-size:12.5px;font-weight:600">consent row saved</text><path d="M603 747 H129" class="k-blue dash" stroke-width="1.75" stroke-linecap="round" stroke-linejoin="round" marker-end="url(#a-blue)"/><text x="365" y="739" text-anchor="middle" class="mono" style="font-size:12px">redirect → callback  ?code=…&amp;iss=…</text><path d="M127 827 H601" class="k-purple" stroke-width="1.75" stroke-linecap="round" stroke-linejoin="round" marker-end="url(#a-purple)"/><text x="365" y="819" text-anchor="middle" class="mono" style="font-size:12px">POST /oauth2/token  code_verifier · resource=/mcp</text><path d="M603 865 H129" class="k-blue dash" stroke-width="1.75" stroke-linecap="round" stroke-linejoin="round" marker-end="url(#a-blue)"/><text x="365" y="857" text-anchor="middle" class="mono" style="font-size:12px">access JWT (aud = /mcp, 1 h) + refresh token</text><path d="M127 945 H367" class="k-purple" stroke-width="1.75" stroke-linecap="round" stroke-linejoin="round" marker-end="url(#a-purple)"/><text x="248" y="937" text-anchor="middle" class="mono" style="font-size:12px">POST /mcp</text><text x="248" y="962" text-anchor="middle" class="mono xs" style="font-size:11px">Authorization: Bearer &lt;JWT&gt;</text><rect x="249" y="981" width="250" height="71" rx="9" class="f-gray" stroke-width="1.25"/><text x="263" y="1000" class="c-purple" style="font-size:12.5px;font-weight:600">✓ signature · iss · aud · exp</text><text x="263" y="1019" class="c-orange" style="font-size:12.5px;font-weight:600">✓ consent row still there</text><text x="263" y="1038" class="c-green" style="font-size:12.5px;font-weight:600">→ tools run as that user</text><path d="M369 1080 H129" class="k-purple dash" stroke-width="1.75" stroke-linecap="round" stroke-linejoin="round" marker-end="url(#a-purple)"/><text x="248" y="1072" text-anchor="middle" class="" style="font-size:12.5px">tool result</text></svg>
